<?xml version="1.0" encoding="UTF-8" standalone="no"?>
<!-- Created with Inkscape (http://www.inkscape.org/) -->

<svg
   xmlns:dc="http://purl.org/dc/elements/1.1/"
   xmlns:cc="http://creativecommons.org/ns#"
   xmlns:rdf="http://www.w3.org/1999/02/22-rdf-syntax-ns#"
   xmlns:svg="http://www.w3.org/2000/svg"
   xmlns="http://www.w3.org/2000/svg"
   xmlns:sodipodi="http://sodipodi.sourceforge.net/DTD/sodipodi-0.dtd"
   xmlns:inkscape="http://www.inkscape.org/namespaces/inkscape"
   width="180mm"
   height="250mm"
   viewBox="0 0 180 250"
   version="1.1"
   id="svg8"
   inkscape:version="0.92.2 5c3e80d, 2017-08-06"
   sodipodi:docname="drawing.svg">
  <defs
     id="defs2">
    <inkscape:perspective
       sodipodi:type="inkscape:persp3d"
       inkscape:vp_x="0 : 125 : 1"
       inkscape:vp_y="0 : 1000 : 0"
       inkscape:vp_z="180 : 125 : 1"
       inkscape:persp3d-origin="90 : 83.333333 : 1"
       id="perspective829" />
  </defs>
  <sodipodi:namedview
     id="base"
     pagecolor="#ffffff"
     bordercolor="#666666"
     borderopacity="1.0"
     inkscape:pageopacity="0.0"
     inkscape:pageshadow="2"
     inkscape:zoom="0.35000001"
     inkscape:cx="356.01955"
     inkscape:cy="517.88535"
     inkscape:document-units="mm"
     inkscape:current-layer="layer1"
     showgrid="false"
     inkscape:window-width="1440"
     inkscape:window-height="855"
     inkscape:window-x="0"
     inkscape:window-y="1"
     inkscape:window-maximized="1" />
  <metadata
     id="metadata5">
    <rdf:RDF>
      <cc:Work
         rdf:about="">
        <dc:format>image/svg+xml</dc:format>
        <dc:type
           rdf:resource="http://purl.org/dc/dcmitype/StillImage" />
        <dc:title />
      </cc:Work>
    </rdf:RDF>
  </metadata>
  <g
     inkscape:label="Layer 1"
     inkscape:groupmode="layer"
     id="layer1"
     transform="translate(0,-47)">
    <rect
       style="opacity:1;fill:#7489ff;fill-opacity:1;stroke:none;stroke-width:0.2;stroke-miterlimit:4;stroke-dasharray:none;stroke-opacity:1"
       id="rect902"
       width="273.17294"
       height="413.23553"
       x="-65.67337"
       y="-38.737347"
       ry="4.6772246" />
    <ellipse
       ry="55.458427"
       rx="58.532024"
       cy="195.63469"
       cx="96.952652"
       id="ellipse834"
       style="opacity:0;fill:#b97178;fill-opacity:1;stroke:none;stroke-width:6.50199986;stroke-miterlimit:4;stroke-dasharray:none;stroke-opacity:1" />
    <path
       style="fill:none;fill-opacity:1;stroke:#ffffff;stroke-width:3.56500006;stroke-linecap:butt;stroke-linejoin:miter;stroke-miterlimit:4;stroke-dasharray:none;stroke-opacity:1"
       d="m 48.118851,100.4167 0.188989,54.99554 -20.410715,-0.18899 0.133635,-88.656718 20.078373,0.11165 45.744839,61.330778 -14.96786,12.35983 -30.767261,-39.95209"
       id="path866"
       inkscape:connector-curvature="0"
       sodipodi:nodetypes="cccccccc" />
    <path
       style="fill:none;fill-opacity:1;stroke:#ffffff;stroke-width:3.4000001;stroke-linecap:butt;stroke-linejoin:miter;stroke-miterlimit:4;stroke-dasharray:none;stroke-opacity:1"
       d="m 117.66602,170.31194 0.26727,28.46421 20.44614,-9.48807 0.13364,-101.562418 -9.88898,-13.09621 -32.874168,26.459678 10.289878,14.03165 11.49259,-9.35443 0.13363,56.92842 -10.95055,5.82987 c 1.6192,2.98705 1.27218,2.38238 3.1619,5.642 z"
       id="path873"
       inkscape:connector-curvature="0"
       sodipodi:nodetypes="cccccccccccc" />
    <g
       id="g908"
       transform="matrix(1.1310077,-0.20362738,0.20236237,1.1239814,-47.553862,-2.5252097)">
      <g
         style="fill:#f5f5f5;fill-opacity:1;stroke:none"
         transform="translate(-12.173119,-1.7659888)"
         id="g884">
        <path
           sodipodi:nodetypes="csssccssssssc"
           inkscape:connector-curvature="0"
           id="path856"
           d="m 117.10766,253.5366 c -9.67841,7.56677 -22.125288,11.19421 -34.86994,9.2926 -6.410455,-0.95649 -12.366693,-3.23283 -17.622349,-6.54303 -13.195449,-8.31096 -21.974643,-23.13907 -22.438396,-39.95828 -0.648462,-23.51817 17.452026,-45.49886 39.73566,-50.17907 l 3.186392,2.64264 c -20.362341,3.12532 -38.02963,22.45866 -38.878993,44.10451 -0.65262,16.63189 7.406577,31.82945 20.26958,40.19273 0.700445,0.45542 1.415134,0.89056 2.143436,1.30458 2.781584,1.58122 5.761747,2.8541 8.905333,3.77009 0.590063,0.17193 1.185881,0.3313 1.787225,0.47776 8.723809,2.12477 17.535082,1.27355 25.386952,-2.00066 4.10669,-1.71248 7.95094,-4.08777 11.38297,-7.04676"
           style="opacity:1;fill:#f5f5f5;fill-opacity:1;stroke:none;stroke-width:0.1991958;stroke-miterlimit:4;stroke-dasharray:none;stroke-opacity:1" />
      </g>
      <g
         style="fill:#fbfbfb;fill-opacity:1;stroke:#fcfcfc;stroke-width:1.59490538;stroke-miterlimit:4;stroke-dasharray:none;stroke-opacity:1"
         transform="matrix(0.77480271,0,0,0.69417628,12.313588,63.74915)"
         id="g890">
        <path
           sodipodi:nodetypes="csssccsscc"
           inkscape:connector-curvature="0"
           id="path888"
           d="m 92.641942,171.38278 c -6.164179,-1.47755 -12.311852,-1.13747 -18.018434,0.72451 -12.297911,4.01266 -22.547303,15.09333 -26.49872,30.28223 -5.784986,22.23698 3.828728,45.97697 22.193346,54.80401 15.061033,7.23916 30.352676,2.49846 40.455306,-10.79512 l 1.41187,3.88727 c -11.06611,13.17366 -27.322419,17.68848 -43.219416,10.20889 -20.122762,-9.46782 -30.654128,-35.0309 -24.287331,-58.95333 6.366794,-23.92242 27.531358,-38.31226 48.809513,-33.1857 l -0.846134,3.02724"
           style="opacity:1;fill:#fbfbfb;fill-opacity:1;stroke:#fcfcfc;stroke-width:0.88076866;stroke-miterlimit:4;stroke-dasharray:none;stroke-opacity:1" />
      </g>
    </g>
    <rect
       ry="4.6772246"
       y="-48.707382"
       x="-380.64935"
       height="413.23553"
       width="273.17294"
       id="rect841"
       style="opacity:1;fill:#7489ff;fill-opacity:1;stroke:none;stroke-width:0.2;stroke-miterlimit:4;stroke-dasharray:none;stroke-opacity:1" />
    <ellipse
       style="opacity:0;fill:#b97178;fill-opacity:1;stroke:none;stroke-width:6.50199986;stroke-miterlimit:4;stroke-dasharray:none;stroke-opacity:1"
       id="ellipse843"
       cx="-214.14906"
       cy="187.08206"
       rx="58.532024"
       ry="55.458427" />
    <path
       sodipodi:nodetypes="cccccccc"
       inkscape:connector-curvature="0"
       id="path845"
       d="m -262.98287,91.864075 0.18899,54.995545 -20.41072,-0.18899 0.13364,-88.656723 20.07837,0.11165 45.74484,61.330783 -14.96786,12.35983 -30.76726,-39.952095"
       style="fill:none;fill-opacity:1;stroke:#ffffff;stroke-width:3.56500006;stroke-linecap:butt;stroke-linejoin:miter;stroke-miterlimit:4;stroke-dasharray:none;stroke-opacity:1" />
    <path
       sodipodi:nodetypes="ccccccccccccsc"
       inkscape:connector-curvature="0"
       id="path847"
       d="m -214.96689,176.30859 21.53119,-14.54927 0.26727,28.46421 20.44614,-9.48807 0.13364,-101.562423 -9.88898,-13.09621 -32.87417,26.459678 10.28988,14.031655 11.49259,-9.354435 0.13363,56.928425 -24.90916,17.1518 c -0.97956,0.56277 -1.56194,1.6082 -1.51442,2.71852 0.0475,1.11032 0.7172,2.10447 1.74142,2.58516 1.02422,0.48069 2.23595,0.36954 3.15097,-0.28904"
       style="fill:none;fill-opacity:1;stroke:#ffffff;stroke-width:3.4000001;stroke-linecap:butt;stroke-linejoin:miter;stroke-miterlimit:4;stroke-dasharray:none;stroke-opacity:1" />
    <g
       transform="matrix(1.1310077,-0.20362738,0.20236237,1.1239814,-358.65558,-11.077834)"
       id="g857">
      <g
         id="g851"
         transform="translate(-12.173119,-1.7659888)"
         style="fill:#f5f5f5;fill-opacity:1;stroke:none">
        <path
           style="opacity:1;fill:#f5f5f5;fill-opacity:1;stroke:none;stroke-width:0.1991958;stroke-miterlimit:4;stroke-dasharray:none;stroke-opacity:1"
           d="m 117.10766,253.5366 c -9.67841,7.56677 -22.125288,11.19421 -34.86994,9.2926 -6.410455,-0.95649 -12.366693,-3.23283 -17.622349,-6.54303 -13.195449,-8.31096 -21.974643,-23.13907 -22.438396,-39.95828 -0.648462,-23.51817 17.452026,-45.49886 39.73566,-50.17907 l 3.186392,2.64264 c -20.362341,3.12532 -38.02963,22.45866 -38.878993,44.10451 -0.65262,16.63189 7.406577,31.82945 20.26958,40.19273 0.700445,0.45542 1.415134,0.89056 2.143436,1.30458 2.781584,1.58122 5.761747,2.8541 8.905333,3.77009 0.590063,0.17193 1.185881,0.3313 1.787225,0.47776 8.723809,2.12477 17.535082,1.27355 25.386952,-2.00066 4.10669,-1.71248 7.95094,-4.08777 11.38297,-7.04676"
           id="path849"
           inkscape:connector-curvature="0"
           sodipodi:nodetypes="csssccssssssc" />
      </g>
      <g
         id="g855"
         transform="matrix(0.77480271,0,0,0.69417628,12.313588,63.74915)"
         style="fill:#fbfbfb;fill-opacity:1;stroke:#fcfcfc;stroke-width:1.59490538;stroke-miterlimit:4;stroke-dasharray:none;stroke-opacity:1">
        <path
           style="opacity:1;fill:#fbfbfb;fill-opacity:1;stroke:#fcfcfc;stroke-width:0.88076866;stroke-miterlimit:4;stroke-dasharray:none;stroke-opacity:1"
           d="m 92.641942,171.38278 c -6.164179,-1.47755 -12.311852,-1.13747 -18.018434,0.72451 -12.297911,4.01266 -22.547303,15.09333 -26.49872,30.28223 -5.784986,22.23698 3.828728,45.97697 22.193346,54.80401 15.061033,7.23916 30.352676,2.49846 40.455306,-10.79512 l 1.41187,3.88727 c -11.06611,13.17366 -27.322419,17.68848 -43.219416,10.20889 -20.122762,-9.46782 -30.654128,-35.0309 -24.287331,-58.95333 6.366794,-23.92242 27.531358,-38.31226 48.809513,-33.1857 l -0.846134,3.02724"
           id="path853"
           inkscape:connector-curvature="0"
           sodipodi:nodetypes="csssccsscc" />
      </g>
    </g>
  </g>
</svg>
